<svg id="Calque_1" data-name="Calque 1" xmlns="http://www.w3.org/2000/svg" xmlns:xlink="http://www.w3.org/1999/xlink" viewBox="0 0 96 96"><defs><style>.cls-1{fill:url(#Dégradé_sans_nom_33);}.cls-2{fill:#fff;}.cls-3{fill:url(#Dégradé_sans_nom_33-2);}.cls-4{fill:url(#Dégradé_sans_nom_44);}</style><radialGradient id="Dégradé_sans_nom_33" cx="48.43" cy="47.79" r="48.21" gradientUnits="userSpaceOnUse"><stop offset="0.02" stop-color="#2a66af"/><stop offset="1" stop-color="#234e9b"/></radialGradient><radialGradient id="Dégradé_sans_nom_33-2" cx="48.43" cy="52.54" r="21.92" xlink:href="#Dégradé_sans_nom_33"/><linearGradient id="Dégradé_sans_nom_44" x1="26.49" y1="63.11" x2="70.53" y2="63.11" gradientUnits="userSpaceOnUse"><stop offset="0.87" stop-color="#2aa9e1"/><stop offset="1" stop-color="#009fe3"/></linearGradient></defs><rect class="cls-1" x="0.43" y="-0.64" width="96" height="96.86"/><circle class="cls-2" cx="35.83" cy="23.85" r="4.55"/><circle class="cls-2" cx="60.87" cy="24.07" r="4.55"/><path class="cls-3" d="M26.49,52.09a22,22,0,1,0,44,0H64.39a16.11,16.11,0,0,1-4.45,10.83,14.38,14.38,0,0,1-10.73,4.85c-10.14-.19-15.36-6-16.7-15.69ZM39.54,52c.19,5.16,4,9.06,8.73,9.09a9.11,9.11,0,0,0,9.41-9.34c0-3.79,0-7.59,0-11.39a3.06,3.06,0,0,1,2.11-3,2.77,2.77,0,0,1,3.51.79,7.2,7.2,0,0,1,1.1,3.14,26.62,26.62,0,0,1,0,3.79h6.22c0-1.54.06-3,0-4.41-.25-5.47-4.22-9.59-9.26-9.75a9.62,9.62,0,0,0-10,9.69c.08,3.61,0,7.21,0,10.82,0,1.84-.9,3-2.36,3.34-1.27.27-2.38-.52-3.17-2.13a1.26,1.26,0,0,0-.88-.65C43.2,52,41.42,52,39.54,52ZM26.19,45.18h6.54a44.84,44.84,0,0,1,0-4.93,3.33,3.33,0,1,1,6.64.53c0,1.47,0,2.93,0,4.37h6.21c0-1.73.05-3.36,0-5A9.54,9.54,0,0,0,37.19,31,9.38,9.38,0,0,0,27,37.74,50.33,50.33,0,0,0,26.19,45.18Z"/><path class="cls-4" d="M26.49,52.09h6c1.34,9.73,6.56,15.5,16.7,15.69a14.38,14.38,0,0,0,10.73-4.85A16.11,16.11,0,0,0,64.39,52.1h6.13a22,22,0,1,1-44,0Z"/><path class="cls-2" d="M39.54,52c1.88,0,3.66,0,5.43,0a1.26,1.26,0,0,1,.88.65c.79,1.61,1.9,2.4,3.17,2.13,1.46-.3,2.34-1.5,2.36-3.34,0-3.61.13-7.21,0-10.82a9.62,9.62,0,0,1,10-9.69c5,.16,9,4.28,9.26,9.75.07,1.44,0,2.87,0,4.41H64.43a26.62,26.62,0,0,0,0-3.79,7.2,7.2,0,0,0-1.1-3.14,2.77,2.77,0,0,0-3.51-.79,3.06,3.06,0,0,0-2.11,3c0,3.8,0,7.6,0,11.39a9.11,9.11,0,0,1-9.41,9.34C43.55,61.09,39.73,57.19,39.54,52Z"/><path class="cls-2" d="M26.19,45.18A50.33,50.33,0,0,1,27,37.74,9.38,9.38,0,0,1,37.19,31a9.54,9.54,0,0,1,8.42,9.15c.06,1.62,0,3.25,0,5H39.41c0-1.44,0-2.9,0-4.37a3.33,3.33,0,1,0-6.64-.53,44.84,44.84,0,0,0,0,4.93Z"/></svg>